<?xml version="1.0" encoding="UTF-8" standalone="no"?>
<!DOCTYPE svg PUBLIC "-//W3C//DTD SVG 20010904//EN"
              "http://www.w3.org/TR/2001/REC-SVG-20010904/DTD/svg10.dtd">

<svg xmlns="http://www.w3.org/2000/svg"
     width="24.9861in" height="7.06944in"
     viewBox="0 0 1799 509">
  <path id="Selection"
        fill="#002e7a" stroke="#002e7a" stroke-width="1"
        d="M 306.00,12.00
           C 359.32,12.00 424.63,8.58 475.00,27.05
             493.67,33.90 510.88,43.93 523.10,60.00
             539.86,82.04 543.04,107.21 543.00,134.00
             542.97,155.80 537.23,180.04 524.56,198.00
             516.16,209.91 503.99,219.54 491.00,226.03
             491.00,226.03 472.00,234.00 472.00,234.00
             498.39,242.63 518.05,248.79 536.33,272.00
             550.74,290.29 558.96,317.80 559.00,341.00
             559.00,341.00 559.00,360.00 559.00,360.00
             558.74,382.16 550.43,407.78 537.97,426.00
             526.21,443.20 506.89,458.01 488.00,466.69
             461.05,479.08 431.45,484.94 402.00,487.09
             402.00,487.09 392.00,488.04 392.00,488.04
             392.00,488.04 379.00,488.04 379.00,488.04
             379.00,488.04 367.00,489.00 367.00,489.00
             367.00,489.00 308.00,489.00 308.00,489.00
             308.00,489.00 41.00,489.00 41.00,489.00
             43.55,485.32 54.33,483.59 59.00,482.00
             66.63,479.40 75.68,476.40 79.91,469.00
             82.50,464.48 82.99,456.18 83.00,451.00
             83.00,451.00 83.00,48.00 83.00,48.00
             82.99,43.29 82.82,39.59 81.51,35.00
             78.17,23.34 62.44,18.99 52.00,16.00
             47.94,14.84 44.36,14.57 41.00,12.00
             41.00,12.00 306.00,12.00 306.00,12.00 Z
           M 723.00,12.00
           C 723.00,12.00 771.00,12.00 771.00,12.00
             771.00,12.00 793.00,13.00 793.00,13.00
             789.70,13.45 786.10,13.95 783.00,15.21
             759.64,24.69 775.90,48.83 784.40,63.00
             784.40,63.00 839.00,147.00 839.00,147.00
             839.00,147.00 853.72,169.00 853.72,169.00
             857.65,174.62 862.55,180.60 865.00,187.00
             865.00,187.00 867.00,187.00 867.00,187.00
             870.98,178.10 887.38,154.43 893.67,145.00
             893.67,145.00 942.58,70.00 942.58,70.00
             942.58,70.00 947.99,61.00 947.99,61.00
             954.66,49.64 968.75,30.17 956.79,18.21
             952.07,13.50 947.41,14.49 942.00,12.00
             942.00,12.00 1096.00,12.00 1096.00,12.00
             1096.00,12.00 1141.00,12.00 1141.00,12.00
             1141.00,12.00 1162.00,13.00 1162.00,13.00
             1153.54,16.28 1149.68,17.26 1142.00,22.92
             1126.49,34.37 1115.95,52.24 1105.33,68.00
             1105.33,68.00 1061.50,133.00 1061.50,133.00
             1061.50,133.00 979.33,255.00 979.33,255.00
             979.33,255.00 961.86,281.00 961.86,281.00
             959.24,284.68 951.59,295.24 950.51,299.00
             949.91,301.08 950.00,303.82 950.00,306.00
             950.00,306.00 950.00,455.00 950.00,455.00
             950.01,459.86 950.09,464.57 952.44,469.00
             956.34,476.36 968.34,480.54 976.00,482.97
             980.72,484.47 988.11,484.79 991.00,489.00
             991.00,489.00 737.00,489.00 737.00,489.00
             739.71,485.09 750.18,483.82 755.00,482.26
             771.87,476.79 778.97,471.58 779.00,453.00
             779.00,453.00 779.00,306.00 779.00,306.00
             779.00,303.41 779.13,300.47 778.30,298.00
             777.01,294.12 766.39,279.19 763.42,275.00
             763.42,275.00 729.00,224.00 729.00,224.00
             729.00,224.00 646.00,101.00 646.00,101.00
             646.00,101.00 621.00,64.00 621.00,64.00
             612.21,50.82 604.83,38.96 593.00,28.09
             587.34,22.89 580.24,19.45 573.00,17.00
             568.55,15.50 562.60,14.76 559.00,12.00
             559.00,12.00 723.00,12.00 723.00,12.00 Z
           M 1344.00,12.00
           C 1344.00,12.00 1390.00,12.00 1390.00,12.00
             1390.00,12.00 1412.00,13.00 1412.00,13.00
             1400.59,16.77 1382.25,19.13 1374.39,29.02
             1368.45,36.48 1370.00,51.66 1370.00,61.00
             1370.00,61.00 1370.00,137.00 1370.00,137.00
             1370.00,137.00 1370.00,295.00 1370.00,295.00
             1370.15,326.01 1384.83,358.34 1412.00,374.55
             1429.39,384.92 1448.03,388.23 1468.00,388.00
             1507.83,387.53 1540.04,364.91 1552.67,327.00
             1555.78,317.64 1557.98,305.86 1558.00,296.00
             1558.00,296.00 1558.00,46.00 1558.00,46.00
             1557.99,42.00 1558.04,38.89 1556.78,35.00
             1553.06,23.56 1539.49,19.42 1529.00,16.43
             1524.47,15.13 1520.74,15.00 1517.00,12.00
             1517.00,12.00 1685.00,12.00 1685.00,12.00
             1685.00,12.00 1734.00,12.00 1734.00,12.00
             1734.00,12.00 1757.00,13.00 1757.00,13.00
             1744.33,17.66 1723.07,19.57 1717.56,34.00
             1716.00,38.09 1716.01,41.72 1716.00,46.00
             1716.00,46.00 1716.00,291.00 1716.00,291.00
             1716.00,291.00 1714.96,303.00 1714.96,303.00
             1714.96,303.00 1714.96,312.00 1714.96,312.00
             1713.41,326.91 1710.76,341.54 1706.85,356.00
             1702.61,371.67 1696.20,387.09 1687.80,401.00
             1680.35,413.34 1673.22,422.77 1663.00,433.00
             1621.85,474.20 1566.35,489.53 1510.00,495.17
             1510.00,495.17 1485.00,497.00 1485.00,497.00
             1485.00,497.00 1443.00,497.00 1443.00,497.00
             1443.00,497.00 1431.00,496.09 1431.00,496.09
             1431.00,496.09 1400.00,493.13 1400.00,493.13
             1353.17,486.62 1305.19,470.68 1270.00,437.91
             1239.53,409.54 1222.65,372.62 1215.92,332.00
             1215.92,332.00 1213.00,306.00 1213.00,306.00
             1213.00,306.00 1212.00,287.00 1212.00,287.00
             1212.00,287.00 1212.00,47.00 1212.00,47.00
             1211.98,34.13 1208.20,25.87 1197.00,18.81
             1192.53,15.99 1187.92,15.39 1184.00,12.00
             1184.00,12.00 1344.00,12.00 1344.00,12.00 Z
           M 301.00,206.00
           C 321.22,206.00 343.07,205.67 361.00,194.98
             366.73,191.57 373.25,185.65 376.81,180.00
             389.78,159.42 386.32,123.06 364.00,110.34
             352.44,103.75 338.93,102.80 326.00,101.91
             326.00,101.91 314.00,101.00 314.00,101.00
             314.00,101.00 265.00,101.00 265.00,101.00
             265.00,101.00 242.00,101.00 242.00,101.00
             240.18,101.01 237.08,100.85 235.60,102.02
             233.62,103.59 234.00,107.70 234.00,110.00
             234.00,110.00 234.00,206.00 234.00,206.00
             234.00,206.00 301.00,206.00 301.00,206.00 Z
           M 297.00,397.00
           C 320.89,397.00 346.84,396.22 368.00,383.77
             375.06,379.62 381.77,373.15 385.83,366.00
             398.43,343.78 394.22,306.97 372.00,292.10
             357.57,282.45 341.70,281.05 325.00,279.91
             325.00,279.91 313.00,279.00 313.00,279.00
             313.00,279.00 234.00,279.00 234.00,279.00
             234.00,279.00 234.00,397.00 234.00,397.00
             234.00,397.00 297.00,397.00 297.00,397.00 Z" />
</svg>
