<?xml version="1.0" encoding="UTF-8" standalone="no"?>
<!-- Generator: Adobe Illustrator 13.0.0, SVG Export Plug-In . SVG Version: 6.00 Build 14948)  -->

<svg
   xmlns:dc="http://purl.org/dc/elements/1.1/"
   xmlns:cc="http://creativecommons.org/ns#"
   xmlns:rdf="http://www.w3.org/1999/02/22-rdf-syntax-ns#"
   xmlns:svg="http://www.w3.org/2000/svg"
   xmlns="http://www.w3.org/2000/svg"
   xmlns:xlink="http://www.w3.org/1999/xlink"
   xmlns:sodipodi="http://sodipodi.sourceforge.net/DTD/sodipodi-0.dtd"
   xmlns:inkscape="http://www.inkscape.org/namespaces/inkscape"
   version="1.1"
   id="Layer_1"
   x="0px"
   y="0px"
   width="289.822px"
   height="271.064px"
   viewBox="0 0 289.822 271.064"
   style="enable-background:new 0 0 289.822 271.064;"
   xml:space="preserve"
   inkscape:version="0.48.4 r9939"
   sodipodi:docname="VHS_diagonal.svg"><metadata
     id="metadata3281"><rdf:RDF><cc:Work
         rdf:about=""><dc:format>image/svg+xml</dc:format><dc:type
           rdf:resource="http://purl.org/dc/dcmitype/StillImage" /><dc:title></dc:title></cc:Work></rdf:RDF></metadata><defs
     id="defs3279" /><sodipodi:namedview
     pagecolor="#ffffff"
     bordercolor="#666666"
     borderopacity="1"
     objecttolerance="10"
     gridtolerance="10"
     guidetolerance="10"
     inkscape:pageopacity="0"
     inkscape:pageshadow="2"
     inkscape:window-width="1366"
     inkscape:window-height="744"
     id="namedview3277"
     showgrid="false"
     inkscape:zoom="2.2024319"
     inkscape:cx="144.911"
     inkscape:cy="134.53626"
     inkscape:window-x="0"
     inkscape:window-y="24"
     inkscape:window-maximized="1"
     inkscape:current-layer="Layer_1" /><path
     d="M215.05,249.424c-1.147,1.738-3.449,2.242-5.142,1.125L1.623,112.942c-1.689-1.117-2.131-3.435-0.981-5.17L70.705,1.719  c1.148-1.736,3.45-2.239,5.143-1.124l208.284,137.606c1.691,1.117,2.134,3.432,0.983,5.17L215.05,249.424z"
     id="path3162" /><linearGradient
     id="SVGID_1_"
     gradientUnits="userSpaceOnUse"
     x1="682.1013"
     y1="455.0593"
     x2="689.4408"
     y2="326.6175"
     gradientTransform="matrix(0.8344 0.5512 -0.5512 0.8344 -207.2697 -574.7407)"><stop
       offset="0"
       style="stop-color:#242424"
       id="stop3165" /><stop
       offset="1"
       style="stop-color:#212121"
       id="stop3167" /></linearGradient><path
     style="fill:url(#SVGID_1_);"
     d="M289.746,160.43c-0.926-5.207-2.122-10.384-3.18-15.564c-0.372-2.073-0.591-5.447-2.437-6.665  L75.846,0.594c-1.691-1.115-3.993-0.612-5.143,1.124L0.64,107.772c-1.162,1.758-0.329,3.998,0.06,5.896  c0.25,1.3,0.545,2.591,0.795,3.893c0.499,2.6,1.091,5.181,1.589,7.779c0.202,0.986,0.415,1.973,0.605,2.959  c0.296,1.643,0.502,3.572,2.004,4.565L213.979,270.47c1.689,1.114,3.993,0.612,5.142-1.124l70.065-106.056  C289.769,162.409,289.938,161.378,289.746,160.43"
     id="path3169" /><path
     d="M215.05,249.424c-1.147,1.738-3.449,2.242-5.142,1.125L1.623,112.942c-1.689-1.117-2.131-3.435-0.981-5.17L70.705,1.719  c1.148-1.736,3.45-2.239,5.143-1.124l208.284,137.606c1.691,1.117,2.134,3.432,0.983,5.17L215.05,249.424z"
     id="path3171" /><g
     id="g3173"><g
       id="g3175"><g
         id="g3177"><defs
           id="defs3179"><path
             id="SVGID_2_"
             d="M82.255,42.788c-6.766-4.468-15.871-2.607-20.339,4.154l-23.57,35.679      c-4.469,6.764-2.608,15.87,4.156,20.339l160.211,105.845c6.765,4.469,15.87,2.607,20.339-4.156l23.57-35.677      c4.469-6.764,2.606-15.87-4.156-20.339L82.255,42.788z" /></defs><clipPath
           id="SVGID_3_"><use
             xlink:href="#SVGID_2_"
             style="overflow:visible;"
             id="use3183" /></clipPath><rect
           x="-8.28"
           y="18.298"
           style="clip-path:url(#SVGID_3_);fill:#DBDBDB;"
           width="276.5"
           height="235"
           id="rect3185"
           clip-path="url(#SVGID_3_)" /></g></g><g
       id="g3187"><g
         id="g3189"><defs
           id="defs3191"><path
             id="SVGID_4_"
             d="M82.255,42.788c-6.766-4.468-15.871-2.607-20.339,4.154l-23.57,35.679      c-4.469,6.764-2.608,15.87,4.156,20.339l160.211,105.845c6.765,4.469,15.87,2.607,20.339-4.156l23.57-35.677      c4.469-6.764,2.606-15.87-4.156-20.339L82.255,42.788z" /></defs><clipPath
           id="SVGID_5_"><use
             xlink:href="#SVGID_4_"
             style="overflow:visible;"
             id="use3195" /></clipPath><line
           style="clip-path:url(#SVGID_5_);fill:none;stroke:#231F20;stroke-width:3.3456;"
           x1="85.613"
           y1="32.22"
           x2="70.149"
           y2="87.837"
           id="line3197"
           clip-path="url(#SVGID_5_)" /></g></g><g
       id="g3199"><g
         id="g3201"><defs
           id="defs3203"><path
             id="SVGID_6_"
             d="M82.255,42.788c-6.766-4.468-15.871-2.607-20.339,4.154l-23.57,35.679      c-4.469,6.764-2.608,15.87,4.156,20.339l160.211,105.845c6.765,4.469,15.87,2.607,20.339-4.156l23.57-35.677      c4.469-6.764,2.606-15.87-4.156-20.339L82.255,42.788z" /></defs><clipPath
           id="SVGID_7_"><use
             xlink:href="#SVGID_6_"
             style="overflow:visible;"
             id="use3207" /></clipPath><g
           style="clip-path:url(#SVGID_7_);"
           id="g3209"
           clip-path="url(#SVGID_7_)"><circle
             style="fill:#383838;"
             cx="94.728"
             cy="96.431"
             r="28.019"
             id="circle3211" /><circle
             style="fill:#C7C7C7;"
             cx="94.728"
             cy="96.43"
             r="11.929"
             id="circle3213" /><circle
             style="fill:#949494;"
             cx="94.728"
             cy="96.43"
             r="9.155"
             id="circle3215" /><circle
             style="fill:#F2F2F2;"
             cx="94.728"
             cy="96.43"
             r="7.491"
             id="circle3217" /></g></g></g><g
       id="g3219"><g
         id="g3221"><defs
           id="defs3223"><path
             id="SVGID_8_"
             d="M82.255,42.788c-6.766-4.468-15.871-2.607-20.339,4.154l-23.57,35.679      c-4.469,6.764-2.608,15.87,4.156,20.339l160.211,105.845c6.765,4.469,15.87,2.607,20.339-4.156l23.57-35.677      c4.469-6.764,2.606-15.87-4.156-20.339L82.255,42.788z" /></defs><clipPath
           id="SVGID_9_"><use
             xlink:href="#SVGID_8_"
             style="overflow:visible;"
             id="use3227" /></clipPath><line
           style="clip-path:url(#SVGID_9_);fill:none;stroke:#231F20;stroke-width:3.3456;"
           x1="248.887"
           y1="140.089"
           x2="203.796"
           y2="176.131"
           id="line3229"
           clip-path="url(#SVGID_9_)" /></g></g><g
       id="g3231"><g
         id="g3233"><defs
           id="defs3235"><path
             id="SVGID_10_"
             d="M82.255,42.788c-6.766-4.468-15.871-2.607-20.339,4.154l-23.57,35.679      c-4.469,6.764-2.608,15.87,4.156,20.339l160.211,105.845c6.765,4.469,15.87,2.607,20.339-4.156l23.57-35.677      c4.469-6.764,2.606-15.87-4.156-20.339L82.255,42.788z" /></defs><clipPath
           id="SVGID_11_"><use
             xlink:href="#SVGID_10_"
             style="overflow:visible;"
             id="use3239" /></clipPath><g
           style="clip-path:url(#SVGID_11_);"
           id="g3241"
           clip-path="url(#SVGID_11_)"><circle
             style="fill:#383838;"
             cx="187.177"
             cy="157.507"
             r="28.019"
             id="circle3243" /><circle
             style="fill:#C7C7C7;"
             cx="187.176"
             cy="157.506"
             r="11.93"
             id="circle3245" /><circle
             style="fill:#949494;"
             cx="187.176"
             cy="157.506"
             r="9.155"
             id="circle3247" /><circle
             style="fill:#F2F2F2;"
             cx="187.176"
             cy="157.507"
             r="7.491"
             id="circle3249" /></g></g></g></g><g
     id="Layer_3"><path
       d="M70.567,130.021l49.5-68l91.5,58.5c0,0-46,73-46.5,74.5S70.567,130.021,70.567,130.021z"
       id="path3252" /></g><line
     style="fill:none;stroke:#5E5E5E;stroke-width:1.8349;"
     x1="63.897"
     y1="15.749"
     x2="274.879"
     y2="155.137"
     id="line3254" /><path
     style="fill:#FFFFFF;"
     d="M169.026,169.626c-1.396,2.113-4.242,2.695-6.356,1.298l-69.272-45.766  c-2.113-1.396-2.696-4.242-1.299-6.356l24.632-37.282c1.396-2.113,4.243-2.695,6.354-1.301l69.274,45.769  c2.114,1.396,2.695,4.243,1.299,6.354L169.026,169.626z"
     id="path3256" /><g
     id="Layer_2"><line
       style="fill:none;stroke:#999999;stroke-width:0.9174;"
       x1="119.329"
       y1="92.421"
       x2="182.609"
       y2="134.228"
       id="line3259" /><line
       style="fill:none;stroke:#999999;stroke-width:0.9174;"
       x1="114.271"
       y1="100.076"
       x2="177.552"
       y2="141.882"
       id="line3261" /><line
       style="fill:none;stroke:#999999;stroke-width:0.9174;"
       x1="109.214"
       y1="107.73"
       x2="172.495"
       y2="149.537"
       id="line3263" /><line
       style="fill:none;stroke:#999999;stroke-width:0.9174;"
       x1="104.157"
       y1="115.385"
       x2="167.438"
       y2="157.192"
       id="line3265" /><g
       id="g3267" /></g><polyline
     style="stroke:#303030;"
     points="6.255,130.08 4.063,118.39 13.147,124.388 14.517,135.701 "
     id="polyline3275" /><text
     xml:space="preserve"
     style="font-size:40px;font-style:normal;font-weight:normal;line-height:125%;letter-spacing:0px;word-spacing:0px;fill:#000000;fill-opacity:1;stroke:none;font-family:Sans"
     x="143.61758"
     y="36.812328"
     id="text3283"
     sodipodi:linespacing="125%"
     transform="matrix(0.82806034,0.56063899,-0.56063899,0.82806034,0,0)"><tspan
       sodipodi:role="line"
       id="tspan3285"
       x="143.61758"
       y="36.812328"
       style="font-size:32px;font-style:normal;font-variant:normal;font-weight:normal;font-stretch:normal;font-family:Purisa;-inkscape-font-specification:Purisa">Stuff</tspan></text>
</svg>